<svg xmlns="http://www.w3.org/2000/svg" viewBox="0 0 220 100" width="220" height="100">
  <g transform="translate(10, 15)">
    <!-- Grid/Globe Emblem (Red and Blue Squares Grid) -->
    <g transform="translate(0, 5)">
      <!-- Row 1 -->
      <rect x="2" y="0" width="11" height="11" fill="#cc0000" rx="1.5"/>
      <rect x="15" y="0" width="11" height="11" fill="#0f2a4a" rx="1.5"/>
      <rect x="28" y="0" width="11" height="11" fill="#0f2a4a" rx="1.5"/>
      
      <!-- Row 2 -->
      <rect x="0" y="13" width="11" height="11" fill="#cc0000" rx="1.5"/>
      <rect x="13" y="13" width="11" height="11" fill="#cc0000" rx="1.5"/>
      <rect x="26" y="13" width="11" height="11" fill="#0f2a4a" rx="1.5"/>
      <rect x="39" y="13" width="11" height="11" fill="#0f2a4a" rx="1.5"/>
      
      <!-- Row 3 -->
      <rect x="2" y="26" width="11" height="11" fill="#cc0000" rx="1.5"/>
      <rect x="15" y="26" width="11" height="11" fill="#0f2a4a" rx="1.5"/>
      <rect x="28" y="26" width="11" height="11" fill="#0f2a4a" rx="1.5"/>

      <!-- Row 4 -->
      <rect x="5" y="39" width="11" height="11" fill="#0f2a4a" rx="1.5"/>
      <rect x="18" y="39" width="11" height="11" fill="#0f2a4a" rx="1.5"/>
    </g>
    
    <!-- CTPAT Main Title -->
    <text x="60" y="38" font-family="'Arial Black', Arial, sans-serif" font-size="34" font-weight="900" fill="#0f2a4a" letter-spacing="1">CTPAT</text>
    <path d="M 188 12 L 193 12 L 193 25 L 188 25 Z" fill="#cc0000" />
    
    <!-- Subtitle -->
    <text x="60" y="54" font-family="Arial, sans-serif" font-size="7" font-weight="700" fill="#475569" letter-spacing="0.5">YOUR SUPPLY CHAIN'S STRONGEST LINK</text>
  </g>
</svg>
